<svg xmlns="http://www.w3.org/2000/svg" width="100" viewBox="0 0 75 75" height="100" version="1.0"><defs><clipPath id="a"><path d="M16.02 30.246h43.027v4.29H16.02Zm0 0"/></clipPath><clipPath id="b"><path d="M35.324 14.934h4.528v8.59h-4.528Zm0 0"/></clipPath><clipPath id="c"><path d="M20.105 14.934h4.532v8.59h-4.532Zm0 0"/></clipPath><clipPath id="d"><path d="M50.54 14.934H55v8.59h-4.46Zm0 0"/></clipPath><clipPath id="e"><path d="M16.02 58.766h43.027v4.265H16.02Zm0 0"/></clipPath><clipPath id="f"><path d="M35.324 43.43h4.528V52h-4.528Zm0 0"/></clipPath><clipPath id="g"><path d="M20.105 43.43h4.532V52h-4.532Zm0 0"/></clipPath><clipPath id="h"><path d="M50.54 43.43H55V52h-4.46Zm0 0"/></clipPath><clipPath id="i"><path d="M.664.684h73.844v74.05H.664Zm0 0"/></clipPath></defs><g clip-path="url(#a)"><path fill="#90f" d="M58.602 34.605H16.527a.49.49 0 0 1-.488-.492c0-2.07 1.68-3.758 3.75-3.758h35.555a3.757 3.757 0 0 1 3.746 3.758.49.49 0 0 1-.488.492Zm-41.54-.98H58.07a2.776 2.776 0 0 0-2.726-2.29H19.789a2.773 2.773 0 0 0-2.727 2.29Zm0 0"/></g><path fill="#90f" d="M37.566 31.336a.492.492 0 0 1-.492-.488v-7.914a.49.49 0 0 1 .981 0v7.914c0 .27-.22.488-.489.488Zm0 0"/><g clip-path="url(#b)"><path fill="#90f" d="M37.566 23.426a.488.488 0 0 1-.347-.145l-.184-.183a5.479 5.479 0 0 1-1.605-3.891 5.48 5.48 0 0 1 1.605-3.895l.184-.183a.488.488 0 0 1 .691 0l.184.184a5.523 5.523 0 0 1 0 7.785l-.184.183a.473.473 0 0 1-.344.145Zm.184-.676Zm-.184-6.57a4.488 4.488 0 0 0-1.16 3.027c0 1.129.41 2.195 1.16 3.027a4.538 4.538 0 0 0 0-6.054Zm0 0"/></g><path fill="#90f" d="M37.566 28.7h-.261c-3.024 0-5.489-2.47-5.489-5.505v-.261c0-.27.22-.489.489-.489h.261c3.028 0 5.489 2.47 5.489 5.504v.262c0 .27-.22.488-.489.488Zm-4.765-5.266a4.528 4.528 0 0 0 4.27 4.28c-.122-2.308-1.97-4.163-4.27-4.28Zm0 0"/><path fill="#90f" d="M37.824 28.7h-.258a.492.492 0 0 1-.492-.49v-.26c0-3.036 2.465-5.505 5.492-5.505h.258c.27 0 .489.22.489.489v.261c0 3.035-2.461 5.504-5.489 5.504Zm4.504-5.266c-2.297.117-4.148 1.972-4.27 4.28a4.525 4.525 0 0 0 4.27-4.28ZM22.34 31.336a.488.488 0 0 1-.488-.488v-7.914a.488.488 0 0 1 .976 0v7.914c0 .27-.219.488-.488.488Zm0 0"/><g clip-path="url(#c)"><path fill="#90f" d="M22.34 23.426a.488.488 0 0 1-.348-.145l-.183-.183a5.479 5.479 0 0 1-1.606-3.891 5.48 5.48 0 0 1 1.606-3.895l.183-.183a.488.488 0 0 1 .692 0l.183.184a5.468 5.468 0 0 1 1.61 3.894 5.46 5.46 0 0 1-1.61 3.89l-.183.184a.473.473 0 0 1-.344.145Zm0-7.246a4.488 4.488 0 0 0-1.16 3.027c0 1.129.41 2.195 1.16 3.027a4.51 4.51 0 0 0 1.156-3.027c0-1.133-.41-2.195-1.156-3.027Zm0 0"/></g><path fill="#90f" d="M22.34 28.7h-.262c-3.023 0-5.488-2.47-5.488-5.505v-.261c0-.27.219-.489.488-.489h.262c3.027 0 5.488 2.47 5.488 5.504v.262c0 .27-.219.488-.488.488Zm-4.766-5.266a4.528 4.528 0 0 0 4.27 4.28c-.121-2.308-1.969-4.163-4.27-4.28Zm0 0"/><path fill="#90f" d="M22.598 28.7h-.258a.488.488 0 0 1-.488-.49v-.26c0-3.036 2.46-5.505 5.488-5.505h.258c.27 0 .488.22.488.489v.261c0 3.035-2.461 5.504-5.488 5.504Zm4.504-5.266a4.518 4.518 0 0 0-4.266 4.28 4.525 4.525 0 0 0 4.266-4.28Zm25.691 7.902a.49.49 0 0 1-.492-.488v-7.914a.49.49 0 0 1 .98 0v7.914c0 .27-.218.488-.488.488Zm0 0"/><g clip-path="url(#d)"><path fill="#90f" d="M52.793 23.426a.484.484 0 0 1-.348-.145l-.183-.183a5.48 5.48 0 0 1-1.606-3.895c0-1.469.57-2.851 1.606-3.89l.183-.184a.484.484 0 0 1 .692 0l.183.184a5.485 5.485 0 0 1 1.61 3.894 5.482 5.482 0 0 1-1.61 3.89l-.183.184a.475.475 0 0 1-.344.145Zm0-7.246a4.488 4.488 0 0 0-1.16 3.027c0 1.129.41 2.195 1.16 3.027a4.51 4.51 0 0 0 1.156-3.027c0-1.133-.41-2.195-1.156-3.027Zm0 0"/></g><path fill="#90f" d="M52.793 28.7h-.262c-3.027 0-5.488-2.47-5.488-5.505v-.261c0-.27.219-.489.488-.489h.258c3.027 0 5.492 2.47 5.492 5.504v.262c0 .27-.218.488-.488.488Zm-4.766-5.266a4.528 4.528 0 0 0 4.27 4.28c-.121-2.308-1.969-4.163-4.27-4.28Zm0 0"/><path fill="#90f" d="M53.05 28.7h-.257a.49.49 0 0 1-.492-.49v-.26c0-3.036 2.465-5.505 5.492-5.505h.258c.27 0 .488.22.488.489v.261c0 3.035-2.46 5.504-5.488 5.504Zm4.505-5.266c-2.297.117-4.149 1.972-4.27 4.28a4.525 4.525 0 0 0 4.27-4.28Zm0 0"/><g clip-path="url(#e)"><path fill="#90f" d="M58.602 63.098H16.527a.488.488 0 0 1-.488-.489 3.755 3.755 0 0 1 3.75-3.757h35.555a3.754 3.754 0 0 1 3.746 3.757c0 .27-.219.489-.488.489Zm-41.54-.98H58.07a2.776 2.776 0 0 0-2.726-2.286H19.789a2.773 2.773 0 0 0-2.727 2.285Zm0 0"/></g><path fill="#90f" d="M37.566 59.832a.493.493 0 0 1-.492-.492v-7.91a.49.49 0 1 1 .98 0v7.91a.49.49 0 0 1-.488.492Zm0 0"/><g clip-path="url(#f)"><path fill="#90f" d="M37.566 51.918a.5.5 0 0 1-.347-.14l-.184-.184a5.48 5.48 0 0 1-1.605-3.895c0-1.469.57-2.851 1.605-3.89l.184-.184a.488.488 0 0 1 .691 0l.184.184c2.14 2.144 2.14 5.636 0 7.785l-.184.183a.485.485 0 0 1-.344.141Zm.184-.672Zm-.184-6.574a4.495 4.495 0 0 0-1.16 3.027c0 1.13.41 2.196 1.16 3.028a4.538 4.538 0 0 0 0-6.055Zm0 0"/></g><path fill="#90f" d="M37.566 57.195h-.261c-3.024 0-5.489-2.468-5.489-5.504v-.261c0-.27.22-.489.489-.489h.261c3.028 0 5.489 2.47 5.489 5.504v.258a.49.49 0 0 1-.489.492Zm-4.765-5.27a4.525 4.525 0 0 0 4.27 4.282 4.528 4.528 0 0 0-4.27-4.281Zm0 0"/><path fill="#90f" d="M37.824 57.195h-.258a.493.493 0 0 1-.492-.492v-.258c0-3.035 2.465-5.504 5.492-5.504h.258c.27 0 .489.22.489.489v.261c0 3.036-2.461 5.504-5.489 5.504Zm4.504-5.27a4.531 4.531 0 0 0-4.27 4.282 4.522 4.522 0 0 0 4.27-4.281ZM22.34 59.832a.49.49 0 0 1-.488-.492v-7.91a.49.49 0 1 1 .976 0v7.91a.49.49 0 0 1-.488.492Zm0 0"/><g clip-path="url(#g)"><path fill="#90f" d="M22.34 51.918a.5.5 0 0 1-.348-.14l-.183-.184a5.48 5.48 0 0 1-1.606-3.895c0-1.469.57-2.851 1.606-3.89l.183-.184a.488.488 0 0 1 .692 0l.183.184a5.466 5.466 0 0 1 1.61 3.89c0 1.473-.57 2.856-1.61 3.895l-.183.183a.485.485 0 0 1-.344.141Zm0-7.246a4.495 4.495 0 0 0-1.16 3.027c0 1.13.41 2.196 1.16 3.028a4.51 4.51 0 0 0 1.156-3.028 4.51 4.51 0 0 0-1.156-3.027Zm0 0"/></g><path fill="#90f" d="M22.34 57.195h-.262c-3.023 0-5.488-2.468-5.488-5.504v-.261c0-.27.219-.489.488-.489h.262c3.027 0 5.488 2.47 5.488 5.504v.258a.49.49 0 0 1-.488.492Zm-4.766-5.27a4.525 4.525 0 0 0 4.27 4.282 4.528 4.528 0 0 0-4.27-4.281Zm0 0"/><path fill="#90f" d="M22.598 57.195h-.258a.49.49 0 0 1-.488-.492v-.258c0-3.035 2.46-5.504 5.488-5.504h.258c.27 0 .488.22.488.489v.261c0 3.036-2.461 5.504-5.488 5.504Zm4.504-5.27a4.525 4.525 0 0 0-4.266 4.282 4.522 4.522 0 0 0 4.266-4.281Zm25.691 7.907a.49.49 0 0 1-.492-.492v-7.91a.49.49 0 1 1 .98 0v7.91a.49.49 0 0 1-.488.492Zm0 0"/><g clip-path="url(#h)"><path fill="#90f" d="M52.793 51.918a.497.497 0 0 1-.348-.14l-.183-.184a5.488 5.488 0 0 1-1.606-3.895c0-1.469.57-2.851 1.606-3.89l.183-.188a.497.497 0 0 1 .348-.14c.129 0 .254.05.344.144l.183.184a5.482 5.482 0 0 1 1.61 3.89 5.485 5.485 0 0 1-1.61 3.895l-.183.183a.488.488 0 0 1-.344.141Zm0-7.246a4.495 4.495 0 0 0-1.16 3.027c0 1.13.41 2.196 1.16 3.028a4.51 4.51 0 0 0 1.156-3.028 4.51 4.51 0 0 0-1.156-3.027Zm0 0"/></g><path fill="#90f" d="M52.793 57.195h-.262c-3.027 0-5.488-2.468-5.488-5.504v-.261c0-.27.219-.489.488-.489h.258c3.027 0 5.492 2.47 5.492 5.504v.258a.49.49 0 0 1-.488.492Zm-4.766-5.27a4.525 4.525 0 0 0 4.27 4.282 4.528 4.528 0 0 0-4.27-4.281Zm0 0"/><path fill="#90f" d="M53.05 57.195h-.257a.49.49 0 0 1-.492-.492v-.258c0-3.035 2.465-5.504 5.492-5.504h.258c.27 0 .488.22.488.489v.261c0 3.036-2.46 5.504-5.488 5.504Zm4.505-5.27a4.531 4.531 0 0 0-4.27 4.282 4.522 4.522 0 0 0 4.27-4.281Zm0 0"/><g clip-path="url(#i)"><path fill="#ff3131" d="M37.566.684a35.046 35.046 0 0 0-3.617.18c-.601.058-1.203.132-1.797.222-.597.086-1.195.191-1.785.309A36.972 36.972 0 0 0 23.445 3.5c-.558.23-1.11.477-1.656.734a39.192 39.192 0 0 0-3.195 1.715c-.516.309-1.028.633-1.532.969-.5.34-.992.687-1.48 1.047a36.431 36.431 0 0 0-4.11 3.559 35.973 35.973 0 0 0-3.547 4.121 36.087 36.087 0 0 0-2.01 3.02 39.62 39.62 0 0 0-.895 1.577 41.993 41.993 0 0 0-.813 1.625 36.933 36.933 0 0 0-2.832 8.602 34.958 34.958 0 0 0-.531 3.59A31.405 31.405 0 0 0 .71 35.87a35.234 35.234 0 0 0 0 3.633c.027.605.07 1.207.133 1.809a34.958 34.958 0 0 0 .531 3.594c.117.593.25 1.183.395 1.773a38.582 38.582 0 0 0 1.05 3.473 37.006 37.006 0 0 0 4.063 8.093 38.038 38.038 0 0 0 2.156 2.914c.383.469.777.93 1.184 1.38.406.448.824.886 1.25 1.312.425.43.863.847 1.312 1.253a36.431 36.431 0 0 0 4.277 3.348c.504.336 1.016.66 1.532.973.52.312 1.043.61 1.578.894.531.285 1.07.559 1.617.817a36.705 36.705 0 0 0 6.809 2.445c.586.148 1.175.281 1.77.398.589.118 1.187.223 1.784.31a35.682 35.682 0 0 0 3.602.355 35.083 35.083 0 0 0 3.621 0 34.86 34.86 0 0 0 1.809-.133 35.495 35.495 0 0 0 1.796-.223 34.782 34.782 0 0 0 3.551-.707 36.881 36.881 0 0 0 3.465-1.055c.57-.203 1.133-.422 1.691-.652a36.853 36.853 0 0 0 3.274-1.555 34.705 34.705 0 0 0 1.574-.894 38.956 38.956 0 0 0 3.012-2.016c.484-.363.96-.734 1.426-1.117.468-.387.925-.781 1.375-1.188a35.98 35.98 0 0 0 1.308-1.253 36.09 36.09 0 0 0 2.434-2.691 35.9 35.9 0 0 0 1.113-1.43c.36-.489.707-.981 1.043-1.485.336-.504.66-1.016.969-1.535.312-.52.61-1.047.894-1.582a36.932 36.932 0 0 0 3.25-8.45 40 40 0 0 0 .399-1.773 38.626 38.626 0 0 0 .531-3.593c.059-.602.102-1.204.133-1.81.027-.605.043-1.21.043-1.816 0-.605-.016-1.21-.043-1.816a40.375 40.375 0 0 0-.133-1.812 34.853 34.853 0 0 0-.223-1.801 39.797 39.797 0 0 0-.308-1.79 40 40 0 0 0-.399-1.773 34.136 34.136 0 0 0-.484-1.75 37.004 37.004 0 0 0-1.953-5.078 37.054 37.054 0 0 0-.813-1.625 37.104 37.104 0 0 0-.894-1.578 36.087 36.087 0 0 0-2.012-3.02 36.024 36.024 0 0 0-3.547-4.12 35.98 35.98 0 0 0-1.308-1.254c-.45-.407-.907-.801-1.375-1.188a39.89 39.89 0 0 0-1.426-1.117 34.79 34.79 0 0 0-3.012-2.016 34.705 34.705 0 0 0-1.574-.894 44.858 44.858 0 0 0-1.617-.82 36.788 36.788 0 0 0-3.348-1.387 32.783 32.783 0 0 0-1.719-.57 38.492 38.492 0 0 0-1.746-.485 34.848 34.848 0 0 0-3.55-.707c-.598-.09-1.2-.164-1.797-.223a34.867 34.867 0 0 0-3.618-.18Zm0 69.234a35.31 35.31 0 0 1-1.578-.04 35.108 35.108 0 0 1-1.574-.116 30.616 30.616 0 0 1-1.566-.196 34.762 34.762 0 0 1-1.551-.27 30.292 30.292 0 0 1-1.543-.347 35.09 35.09 0 0 1-1.52-.422c-.5-.152-1-.316-1.496-.496a31.822 31.822 0 0 1-1.472-.566 33.806 33.806 0 0 1-2.852-1.356 29.48 29.48 0 0 1-1.371-.777 33.42 33.42 0 0 1-2.625-1.758c-.422-.316-.836-.64-1.242-.972a33.35 33.35 0 0 1-2.336-2.125 37.693 37.693 0 0 1-1.09-1.145c-.352-.39-.695-.793-1.027-1.2-.336-.405-.66-.823-.973-1.245a32.067 32.067 0 0 1-.906-1.293 40.356 40.356 0 0 1-.848-1.336c-.27-.453-.527-.914-.777-1.38A34.07 34.07 0 0 1 7.87 50.02a33.683 33.683 0 0 1-1.063-2.977 29.258 29.258 0 0 1-.417-1.523 30.29 30.29 0 0 1-.618-3.106c-.078-.52-.14-1.043-.191-1.566a29.973 29.973 0 0 1-.117-1.578 30.543 30.543 0 0 1-.04-1.583c0-.527.013-1.054.04-1.582.027-.527.062-1.05.117-1.578a30.736 30.736 0 0 1 .461-3.129 30.29 30.29 0 0 1 .348-1.543c.125-.511.265-1.02.418-1.523a31.82 31.82 0 0 1 1.703-4.426c.226-.476.46-.945.707-1.41.25-.469.508-.926.777-1.379.274-.449.555-.898.848-1.336a30.928 30.928 0 0 1 1.879-2.539 30.187 30.187 0 0 1 2.117-2.344c.37-.375.75-.738 1.14-1.09.391-.355.79-.699 1.196-1.035.406-.335.82-.66 1.242-.972a33.42 33.42 0 0 1 3.996-2.54c.465-.245.934-.484 1.41-.71a31.822 31.822 0 0 1 2.914-1.207c.496-.18.996-.344 1.496-.496a26.613 26.613 0 0 1 1.52-.422 30.292 30.292 0 0 1 1.543-.348 29.917 29.917 0 0 1 1.55-.27 30.616 30.616 0 0 1 1.567-.195c.523-.05 1.047-.09 1.574-.117a35.31 35.31 0 0 1 1.578-.039c.524 0 1.051.016 1.575.04.527.026 1.05.066 1.574.116.523.051 1.047.117 1.566.196.52.074 1.04.168 1.555.27.516.1 1.027.218 1.539.347.508.125 1.016.265 1.52.422.503.152 1.003.316 1.496.496a31.822 31.822 0 0 1 2.914 1.207c.476.226.945.465 1.41.71a33.604 33.604 0 0 1 2.707 1.63c.437.293.867.593 1.289.91.422.312.836.636 1.242.972a33.351 33.351 0 0 1 2.336 2.125c.375.372.734.754 1.09 1.145a33.207 33.207 0 0 1 2.91 3.738c.293.438.57.887.844 1.336.27.453.527.91.777 1.38a31.66 31.66 0 0 1 1.348 2.858 31.82 31.82 0 0 1 1.062 2.977 30.253 30.253 0 0 1 .766 3.066c.102.52.195 1.04.27 1.559a30.765 30.765 0 0 1 .308 3.148 30.972 30.972 0 0 1 0 3.165 30.6 30.6 0 0 1-.309 3.144 30.358 30.358 0 0 1-.27 1.563 30.253 30.253 0 0 1-.765 3.066 29.288 29.288 0 0 1-.496 1.5 31.97 31.97 0 0 1-2.691 5.715 42.04 42.04 0 0 1-.844 1.336 33.207 33.207 0 0 1-1.879 2.54c-.336.405-.68.807-1.031 1.198a33.414 33.414 0 0 1-2.23 2.234c-.391.356-.79.7-1.196 1.036-.406.332-.82.656-1.242.972a33.25 33.25 0 0 1-1.29.91c-.437.293-.882.575-1.335.848-.45.27-.906.531-1.371.777-.465.25-.934.489-1.41.711a29.926 29.926 0 0 1-2.914 1.211c-.493.18-.993.344-1.496.496a35.09 35.09 0 0 1-1.52.422c-.512.13-1.023.246-1.54.348a36.81 36.81 0 0 1-1.554.27 30.08 30.08 0 0 1-1.566.195c-.524.05-1.047.09-1.574.117-.524.023-1.051.039-1.575.039Zm0 0"/></g><path fill="#ff3131" d="M51.848 23.363a2.22 2.22 0 0 0-.36-.297 2.593 2.593 0 0 0-.41-.222 2.279 2.279 0 0 0-.45-.133 2.317 2.317 0 0 0-.929 0 2.243 2.243 0 0 0-.86.355c-.128.086-.25.184-.359.297L37.566 34.31 26.625 23.363a2.531 2.531 0 0 0-.363-.238 2.258 2.258 0 0 0-.399-.168 2.538 2.538 0 0 0-.422-.094 2.246 2.246 0 0 0-.86.05c-.14.036-.276.083-.41.142a2.4 2.4 0 0 0-.378.21 2.484 2.484 0 0 0-.61.614 2.238 2.238 0 0 0-.21.379 2.28 2.28 0 0 0-.203.84c-.008.144-.004.289.015.433.016.145.047.285.09.422.043.14.102.274.168.402.07.13.148.247.238.364l10.914 10.968-10.914 10.97a2.602 2.602 0 0 0-.508.554 2.455 2.455 0 0 0-.23.445c-.027.078-.055.157-.078.239-.02.082-.04.164-.055.246-.012.082-.02.164-.023.25a1.78 1.78 0 0 0-.004.25c.004.086.012.168.027.25a2.41 2.41 0 0 0 .125.484c.031.082.067.156.102.23.039.075.082.149.125.22a2.602 2.602 0 0 0 .316.39 2.602 2.602 0 0 0 .39.316c.071.043.141.086.216.125.074.04.152.07.23.102.078.031.156.054.238.078a2.582 2.582 0 0 0 .746.074c.082-.004.165-.015.25-.027a2.424 2.424 0 0 0 .707-.238c.075-.04.149-.079.22-.125a2.639 2.639 0 0 0 .386-.32 1.88 1.88 0 0 0 .164-.188l10.941-10.946 10.938 10.946c.113.09.234.168.363.238.13.066.262.125.399.168.136.043.277.074.422.094.144.015.289.023.433.015a2.376 2.376 0 0 0 .836-.207 2.4 2.4 0 0 0 .379-.21c.117-.087.23-.176.332-.278a2.4 2.4 0 0 0 .629-1.125 2.301 2.301 0 0 0-.043-1.285 2.136 2.136 0 0 0-.168-.402 2.239 2.239 0 0 0-.238-.364L40.934 37.688l10.914-10.97c.109-.113.207-.23.293-.363a2.401 2.401 0 0 0 .352-.852 2.595 2.595 0 0 0 0-.926 2.537 2.537 0 0 0-.134-.444 2.355 2.355 0 0 0-.512-.77Zm0 0"/></svg>